# xmcd
#
# Track frame offsets:
#        187
#        12227
#        24152
#        37295
#        49862
#        72097
#        85557
#        98230
#        112135
#        123125
#        134750
#        145167
#        157942
#        171097
#        184030
#        193180
#        207965
#        220787
#        234445
#        249067
#        260807
#        272095
#        283565
#        297075
#        310050
#        322512
#        335780
#
# Disc length: 4647 seconds
#
# Revision: 0
# Processed by: cddbd v1.5.1PL0 Copyright (c) Steve Scherf et al.
# Submitted via: ExactAudioCopy v0.95b3
#
DISCID=8512251b
DTITLE=Various Artist - Chess 50th Anniversary Collection  - R&B Singers Editi
DTITLE=on
DYEAR=1997
DGENRE=R&B
TTITLE0=Little Milton - We're Gonna Make It
TTITLE1=Little Milton - Grits Ain't Groceries
TTITLE2=Etta James - All I Could Do Was Cry
TTITLE3=Etta James - Somethings Got A Hold On Me
TTITLE4=Billy Stewart - Summer Time
TTITLE5=Billy Stewart - I Do Love You
TTITLE6=Jackie Brenston and His Delta Cats - Rocket 88
TTITLE7=Roscoe Gordon - Booted
TTITLE8=Sugar Boy Crawford - Jock-A-Mo
TTITLE9=Tony Clarke - The Entertainer
TTITLE10=Clarence 'Frogman' Henry - (I Don't Know Why) But I Do
TTITLE11=Mitty Colier - I Had A Talk With My Man
TTITLE12=Fontella Bass - Rescue Me
TTITLE13=Bobby McClure - Peak Of Love
TTITLE14=Jan Bradly - Mama Didn't Lie
TTITLE15=Jackie Ross - Selfish One
TTITLE16=Gene Chandler - I Fooled You This Time
TTITLE17=Sugar Pie DeSanto - I Want To Know
TTITLE18=James Phelps - Love Is A 5 Letter Word
TTITLE19=Mitzi Mars - Roll 'Em
TTITLE20=Bobby Moore and The Rhythm Aces - Searchin' For My Love
TTITLE21=Irma Thomas - Good To Me
TTITLE22=Ty Hunter - Lonely Baby
TTITLE23=Laura Lee - Dirty Old Man
TTITLE24=Jimmy McCracklin - The Walk
TTITLE25=Maurice and Mac - So Much Love
TTITLE26=Kip Anderson - Without A Woman
EXTD=UPC: 4988067030979\nLabel: Chess MVCE-22026 (japan 1997-11-21]\n
EXTT0=
EXTT1=
EXTT2=
EXTT3=
EXTT4=
EXTT5=
EXTT6=
EXTT7=
EXTT8=
EXTT9=
EXTT10=
EXTT11=
EXTT12=
EXTT13=
EXTT14=
EXTT15=
EXTT16=
EXTT17=
EXTT18=
EXTT19=
EXTT20=
EXTT21=
EXTT22=
EXTT23=
EXTT24=
EXTT25=
EXTT26=
PLAYORDER=
